<svg style="background-color:#efefef;" height="400" width="1000" xmlns="http://www.w3.org/2000/svg">
    <defs>
        <pattern height="25" id="smallGrid" patternUnits="userSpaceOnUse" width="25">
            <path d="M25,0 L0,0 0,25" fill="none" stroke="white" stroke-width="1">
            </path>
        </pattern>
        <pattern height="50" id="grid" patternUnits="userSpaceOnUse" width="50">
            <rect fill="url(#smallGrid)" height="50" width="50">
            </rect>
            <path d="M50,0 L0,0 0,50" fill="none" stroke="white" stroke-width="1.5">
            </path>
        </pattern>
    </defs>
    <rect fill="url(#grid)" height="100%" width="100%">
    </rect>
    <text fill="#ffc0cb" font-family="Verdana, sans-serif" font-size="20px" font-weight="bolder" x="25" y="30">
        bundle 0
    </text>
    <text fill="#fb82af" font-family="Verdana, sans-serif" font-size="20px" font-weight="bolder" x="25" y="52">
        bundle 0.25
    </text>
    <text fill="#e856a8" font-family="Verdana, sans-serif" font-size="20px" font-weight="bolder" x="25" y="74">
        bundle 0.5
    </text>
    <text fill="#d62aba" font-family="Verdana, sans-serif" font-size="20px" font-weight="bolder" x="25" y="96">
        bundle 0.75
    </text>
    <text fill="#9a1dae" font-family="Verdana, sans-serif" font-size="20px" font-weight="bolder" x="25" y="118">
        bundle 1
    </text>
    <path d="M50,300 L65.41666666666667,300 C80.83333333333333,300 111.66666666666667,300 142.5,300 C173.33333333333334,300 204.16666666666666,300 235,300 C265.8333333333333,300 296.6666666666667,300 327.5,300 C358.3333333333333,300 389.1666666666667,300 420,300 C450.8333333333333,300 481.6666666666667,300 512.5,300 C543.3333333333334,300 574.1666666666666,300 605,300 C635.8333333333334,300 666.6666666666666,300 697.5,300 C728.3333333333334,300 759.1666666666666,300 790,300 C820.8333333333334,300 851.6666666666666,300 882.5,300 C913.3333333333334,300 944.1666666666666,300 959.5833333333334,300 L975,300" fill="none" stroke="#ffc0cb" stroke-width="2">
    </path>
    <path d="M50,300 L65.72916666666667,293.75 C81.45833333333333,287.5 112.91666666666667,275 143.33333333333334,266.6666666666667 C173.75,258.3333333333333 203.125,254.16666666666666 231.45833333333334,252.08333333333334 C259.7916666666667,250 287.0833333333333,250 315.4166666666667,256.25 C343.75,262.5 373.125,275 405.625,281.25 C438.125,287.5 473.75,287.5 507.2916666666667,283.3333333333333 C540.8333333333334,279.1666666666667 572.2916666666666,270.8333333333333 604.7916666666666,268.75 C637.2916666666666,266.6666666666667 670.8333333333334,270.8333333333333 703.3333333333334,275 C735.8333333333334,279.1666666666667 767.2916666666666,283.3333333333333 797.7083333333334,284.375 C828.125,285.4166666666667 857.5,283.3333333333333 886.875,285.4166666666667 C916.25,287.5 945.625,293.75 960.3125,296.875 L975,300" fill="none" stroke="#fb82af" stroke-width="2">
    </path>
    <path d="M50,300 L66.04166666666667,287.5 C82.08333333333333,275 114.16666666666667,250 144.16666666666666,233.33333333333334 C174.16666666666666,216.66666666666666 202.08333333333334,208.33333333333334 227.91666666666666,204.16666666666666 C253.75,200 277.5,200 303.3333333333333,212.5 C329.1666666666667,225 357.0833333333333,250 391.25,262.5 C425.4166666666667,275 465.8333333333333,275 502.0833333333333,266.6666666666667 C538.3333333333334,258.3333333333333 570.4166666666666,241.66666666666666 604.5833333333334,237.5 C638.75,233.33333333333334 675,241.66666666666666 709.1666666666666,250 C743.3333333333334,258.3333333333333 775.4166666666666,266.6666666666667 805.4166666666666,268.75 C835.4166666666666,270.8333333333333 863.3333333333334,266.6666666666667 891.25,270.8333333333333 C919.1666666666666,275 947.0833333333334,287.5 961.0416666666666,293.75 L975,300" fill="none" stroke="#e856a8" stroke-width="2">
    </path>
    <path d="M50,300 L66.35416666666667,281.25 C82.70833333333333,262.5 115.41666666666667,225 145,200 C174.58333333333334,175 201.04166666666666,162.5 224.375,156.25 C247.70833333333334,150 267.9166666666667,150 291.25,168.75 C314.5833333333333,187.5 341.0416666666667,225 376.875,243.75 C412.7083333333333,262.5 457.9166666666667,262.5 496.875,250 C535.8333333333334,237.5 568.5416666666666,212.5 604.375,206.25 C640.2083333333334,200 679.1666666666666,212.5 715,225 C750.8333333333334,237.5 783.5416666666666,250 813.125,253.125 C842.7083333333334,256.25 869.1666666666666,250 895.625,256.25 C922.0833333333334,262.5 948.5416666666666,281.25 961.7708333333334,290.625 L975,300" fill="none" stroke="#d62aba" stroke-width="2">
    </path>
    <path d="M50,300 L66.66666666666667,275 C83.33333333333333,250 116.66666666666667,200 145.83333333333334,166.66666666666666 C175,133.33333333333334 200,116.66666666666667 220.83333333333334,108.33333333333333 C241.66666666666666,100 258.3333333333333,100 279.1666666666667,125 C300,150 325,200 362.5,225 C400,250 450,250 491.6666666666667,233.33333333333334 C533.3333333333334,216.66666666666666 566.6666666666666,183.33333333333334 604.1666666666666,175 C641.6666666666666,166.66666666666666 683.3333333333334,183.33333333333334 720.8333333333334,200 C758.3333333333334,216.66666666666666 791.6666666666666,233.33333333333334 820.8333333333334,237.5 C850,241.66666666666666 875,233.33333333333334 900,241.66666666666666 C925,250 950,275 962.5,287.5 L975,300" fill="none" stroke="#9a1dae" stroke-width="2">
    </path>
    <circle cx="50" cy="300" fill="white" r="4" stroke="black" stroke-width="2">
    </circle>
    <circle cx="150" cy="150" fill="white" r="4" stroke="black" stroke-width="2">
    </circle>
    <circle cx="225" cy="100" fill="white" r="4" stroke="black" stroke-width="2">
    </circle>
    <circle cx="275" cy="100" fill="white" r="4" stroke="black" stroke-width="2">
    </circle>
    <circle cx="350" cy="250" fill="white" r="4" stroke="black" stroke-width="2">
    </circle>
    <circle cx="500" cy="250" fill="white" r="4" stroke="black" stroke-width="2">
    </circle>
    <circle cx="600" cy="150" fill="white" r="4" stroke="black" stroke-width="2">
    </circle>
    <circle cx="725" cy="200" fill="white" r="4" stroke="black" stroke-width="2">
    </circle>
    <circle cx="825" cy="250" fill="white" r="4" stroke="black" stroke-width="2">
    </circle>
    <circle cx="900" cy="225" fill="white" r="4" stroke="black" stroke-width="2">
    </circle>
    <circle cx="975" cy="300" fill="white" r="4" stroke="black" stroke-width="2">
    </circle>
</svg>
