<svg style="background-color:#efefef;" height="400" width="1000" xmlns="http://www.w3.org/2000/svg">
    <defs>
        <pattern height="25" id="smallGrid" patternUnits="userSpaceOnUse" width="25">
            <path d="M25,0 L0,0 0,25" fill="none" stroke="white" stroke-width="1">
            </path>
        </pattern>
        <pattern height="50" id="grid" patternUnits="userSpaceOnUse" width="50">
            <rect fill="url(#smallGrid)" height="50" width="50">
            </rect>
            <path d="M50,0 L0,0 0,50" fill="none" stroke="white" stroke-width="1.5">
            </path>
        </pattern>
    </defs>
    <rect fill="url(#grid)" height="100%" width="100%">
    </rect>
    <text fill="#ffc0cb" font-family="Verdana, sans-serif" font-size="20px" font-weight="bolder" x="25" y="30">
        catmull rom closed 0
    </text>
    <text fill="#fb82af" font-family="Verdana, sans-serif" font-size="20px" font-weight="bolder" x="25" y="52">
        catmull rom closed 0.25
    </text>
    <text fill="#e856a8" font-family="Verdana, sans-serif" font-size="20px" font-weight="bolder" x="25" y="74">
        catmull rom closed 0.5
    </text>
    <text fill="#d62aba" font-family="Verdana, sans-serif" font-size="20px" font-weight="bolder" x="25" y="96">
        catmull rom closed 0.75
    </text>
    <text fill="#9a1dae" font-family="Verdana, sans-serif" font-size="20px" font-weight="bolder" x="25" y="118">
        catmull rom closed 1
    </text>
    <path d="M150,150 C179.16666666666666,116.66666666666667 204.16666666666666,108.33333333333333 225,100 245.83333333333334,91.66666666666667 254.16666666666666,75 275,100 295.8333333333333,125 312.5,225 350,250 387.5,275 458.3333333333333,266.6666666666667 500,250 541.6666666666666,233.33333333333334 562.5,158.33333333333334 600,150 637.5,141.66666666666666 687.5,183.33333333333334 725,200 762.5,216.66666666666666 795.8333333333334,245.83333333333334 825,250 854.1666666666666,254.16666666666666 875,216.66666666666666 900,225 925,233.33333333333334 1116.6666666666667,287.5 975,300 833.3333333333334,312.5 187.5,325 50,300 -87.5,275 120.83333333333334,183.33333333333331 150,150" fill="none" stroke="#ffc0cb" stroke-width="2">
    </path>
    <path d="M150,150 C176.3840081587956,121.74093811311798 203.0529626726253,107.72055856415221 225,100 243.94045824776097,93.33709990316903 257.56560482952364,84.30003610328284 275,100 298.5939660871864,121.24676033364639 311.60867907806494,225.34863919530622 350,250 387.33527060461114,273.9732628186099 458.1456612846648,267.03837138426815 500,250 541.2426363909726,233.21064488737807 562.2148398759032,158.0757126555353 600,150 637.3230622746141,142.0230501772516 686.7859979555719,182.92796033498175 725,200 761.4797221823845,216.2972531205305 794.8333996937673,246.7679586784579 825,250 852.6628944505545,252.96379495965866 875.852973190645,218.1316423420364 900,225 925.9879921809843,232.39200012161365 1025.198029127917,284.1963572748478 975,300 888.7363094826578,327.1580492057806 142.94349260055216,345.2120481597819 50,300 -11.754551957466994,269.9597067092551 118.62394977527045,183.60587745918238 150,150" fill="none" stroke="#fb82af" stroke-width="2">
    </path>
    <path d="M150,150 C174.4077682344544,125.59223176554563 201.50281615652946,107.1143748231127 225,100 242.50027908358396,94.70134183997996 259.3985449774631,90.35777052211942 275,100 303.5728284700477,117.6589791492101 310.67715104458006,225.6971428110722 350,250 387.1892544416877,272.984223261231 457.95062325807123,267.41742213584274 500,250 540.8292528272556,233.08796973739078 561.9232752097317,157.81554102840957 600,150 637.1510925306279,142.37445212205927 685.9957196353515,182.48450132539352 725,200 760.5443248134045,215.9617500525209 793.6239497752703,247.7701727655472 825,250 851.3840081587954,251.87505372808639 876.5829642941892,219.4719877418889 900,225 927.1237694606573,231.40305339874794 982.7358107294534,281.32410082100233 975,300 952.1551363047082,355.15237976373743 92.05016670425617,378.5714552008389 50,300 31.43616516716798,265.3131573251052 115.48220313557538,184.51779686442455 150,150" fill="none" stroke="#e856a8" stroke-width="2">
    </path>
    <path d="M150,150 C173.06850053527765,128.4621475132379 199.43378634969199,106.52109258265156 225,100 241.4327464193657,95.8085517764329 260.2249064324866,94.20036590857801 275,100 311.61950215800977,114.37417043459287 309.7040813168356,226.0453754785734 350,250 387.0612281091988,272.0317052612505 457.748077270374,267.8039409692615 500,250 540.4263266622087,232.96532117357626 561.6252094625783,157.5527907006048 600,150 636.9840123376182,142.72093735124832 685.1246491612802,182.0007502677497 725,200 759.6889789109111,215.65818434801014 792.1817938073292,248.8454890516543 825,250 850.3062964304033,250.89024964129533 877.2013061040195,220.69740517849996 900,225 928.4208561859969,230.36361553018727 964.1167041155534,279.1153208772647 975,300 1030.2312077534837,405.98683190641515 32.0638338080714,431.7990169605324 50,300 55.26113662654107,261.33997488352867 111.20356118921329,186.22220589676309 150,150" fill="none" stroke="#d62aba" stroke-width="2">
    </path>
    <path d="M150,150 C172.22222222222226,130.55555555555557 196.75419052424465,105.94648620542219 225,100 240.6679560587419,96.70148293500169 260.44929359634085,96.57630437560961 275,100 323.8045529588349,111.48342422560822 308.6881039375368,226.39320225002103 350,250 386.9504831500294,271.1145618000168 457.5378797541251,268.1980515339464 500,250 540.0336708925556,232.842712474619 561.320545127035,157.28743352679052 600,150 636.8217440213755,143.06256996698724 684.1681084241542,181.47441956281065 725,200 758.90904029252,215.38465716975446 790.4822031355753,249.99999999999997 825,250 849.4077682344544,250 877.7186493437439,221.8169499062491 900,225 929.8935688187388,229.27050983124838 956.2087687139285,277.571756206947 975,300 1138.8780205204532,495.5963470727992 -42.845036998077255,514.7041480580536 50,300 68.09500224696858,258.15530730388514 105.55555555555557,188.8888888888889 150,150" fill="none" stroke="#9a1dae" stroke-width="2">
    </path>
    <circle cx="50" cy="300" fill="white" r="4" stroke="black" stroke-width="2">
    </circle>
    <circle cx="150" cy="150" fill="white" r="4" stroke="black" stroke-width="2">
    </circle>
    <circle cx="225" cy="100" fill="white" r="4" stroke="black" stroke-width="2">
    </circle>
    <circle cx="275" cy="100" fill="white" r="4" stroke="black" stroke-width="2">
    </circle>
    <circle cx="350" cy="250" fill="white" r="4" stroke="black" stroke-width="2">
    </circle>
    <circle cx="500" cy="250" fill="white" r="4" stroke="black" stroke-width="2">
    </circle>
    <circle cx="600" cy="150" fill="white" r="4" stroke="black" stroke-width="2">
    </circle>
    <circle cx="725" cy="200" fill="white" r="4" stroke="black" stroke-width="2">
    </circle>
    <circle cx="825" cy="250" fill="white" r="4" stroke="black" stroke-width="2">
    </circle>
    <circle cx="900" cy="225" fill="white" r="4" stroke="black" stroke-width="2">
    </circle>
    <circle cx="975" cy="300" fill="white" r="4" stroke="black" stroke-width="2">
    </circle>
</svg>
