<svg style="background-color:#efefef;" height="400" width="1000" xmlns="http://www.w3.org/2000/svg">
    <defs>
        <pattern height="25" id="smallGrid" patternUnits="userSpaceOnUse" width="25">
            <path d="M25,0 L0,0 0,25" fill="none" stroke="white" stroke-width="1">
            </path>
        </pattern>
        <pattern height="50" id="grid" patternUnits="userSpaceOnUse" width="50">
            <rect fill="url(#smallGrid)" height="50" width="50">
            </rect>
            <path d="M50,0 L0,0 0,50" fill="none" stroke="white" stroke-width="1.5">
            </path>
        </pattern>
    </defs>
    <rect fill="url(#grid)" height="100%" width="100%">
    </rect>
    <text font-family="Verdana, sans-serif" font-size="20px" font-weight="bolder" x="25" y="30">
        radial
    </text>
    <path d="M500,120 L556.5685424949238,143.4314575050762 530,200 556.5685424949238,256.5685424949238 500,280 443.4314575050762,256.5685424949238 420,200.00000000000003 443.4314575050762,143.4314575050762 500,120" fill="none" stroke="black" stroke-width="2">
    </path>
    <circle cx="500" cy="120" fill="white" r="4" stroke="black" stroke-width="2">
    </circle>
    <circle cx="556.5685424949238" cy="143.4314575050762" fill="white" r="4" stroke="black" stroke-width="2">
    </circle>
    <circle cx="530" cy="200" fill="white" r="4" stroke="black" stroke-width="2">
    </circle>
    <circle cx="556.5685424949238" cy="256.5685424949238" fill="white" r="4" stroke="black" stroke-width="2">
    </circle>
    <circle cx="500" cy="280" fill="white" r="4" stroke="black" stroke-width="2">
    </circle>
    <circle cx="443.4314575050762" cy="256.5685424949238" fill="white" r="4" stroke="black" stroke-width="2">
    </circle>
    <circle cx="420" cy="200.00000000000003" fill="white" r="4" stroke="black" stroke-width="2">
    </circle>
    <circle cx="443.4314575050762" cy="143.4314575050762" fill="white" r="4" stroke="black" stroke-width="2">
    </circle>
    <circle cx="500" cy="120" fill="white" r="4" stroke="black" stroke-width="2">
    </circle>
</svg>
