<svg style="background-color:#efefef;" height="400" width="1000" xmlns="http://www.w3.org/2000/svg">
    <defs>
        <pattern height="25" id="smallGrid" patternUnits="userSpaceOnUse" width="25">
            <path d="M25,0 L0,0 0,25" fill="none" stroke="white" stroke-width="1">
            </path>
        </pattern>
        <pattern height="50" id="grid" patternUnits="userSpaceOnUse" width="50">
            <rect fill="url(#smallGrid)" height="50" width="50">
            </rect>
            <path d="M50,0 L0,0 0,50" fill="none" stroke="white" stroke-width="1.5">
            </path>
        </pattern>
    </defs>
    <rect fill="url(#grid)" height="100%" width="100%">
    </rect>
    <text font-family="Verdana, sans-serif" font-size="20px" font-weight="bolder" x="25" y="30">
        step 0.5
    </text>
    <path d="M50,300 L100,300 100,150 187.5,150 187.5,100 250,100 250,100 312.5,100 312.5,250 425,250 425,250 550,250 550,150 662.5,150 662.5,200 775,200 775,250 862.5,250 862.5,225 937.5,225 937.5,300 975,300" fill="none" stroke="black" stroke-width="2">
    </path>
    <circle cx="50" cy="300" fill="white" r="4" stroke="black" stroke-width="2">
    </circle>
    <circle cx="150" cy="150" fill="white" r="4" stroke="black" stroke-width="2">
    </circle>
    <circle cx="225" cy="100" fill="white" r="4" stroke="black" stroke-width="2">
    </circle>
    <circle cx="275" cy="100" fill="white" r="4" stroke="black" stroke-width="2">
    </circle>
    <circle cx="350" cy="250" fill="white" r="4" stroke="black" stroke-width="2">
    </circle>
    <circle cx="500" cy="250" fill="white" r="4" stroke="black" stroke-width="2">
    </circle>
    <circle cx="600" cy="150" fill="white" r="4" stroke="black" stroke-width="2">
    </circle>
    <circle cx="725" cy="200" fill="white" r="4" stroke="black" stroke-width="2">
    </circle>
    <circle cx="825" cy="250" fill="white" r="4" stroke="black" stroke-width="2">
    </circle>
    <circle cx="900" cy="225" fill="white" r="4" stroke="black" stroke-width="2">
    </circle>
    <circle cx="975" cy="300" fill="white" r="4" stroke="black" stroke-width="2">
    </circle>
</svg>
